<?xml version="1.0" encoding="utf-8"?>
<!-- Generator: Adobe Illustrator 17.1.0, SVG Export Plug-In . SVG Version: 6.00 Build 0)  -->
<!DOCTYPE svg PUBLIC "-//W3C//DTD SVG 1.1//EN" "http://www.w3.org/Graphics/SVG/1.1/DTD/svg11.dtd">
<svg version="1.1" id="Layer_1" xmlns="http://www.w3.org/2000/svg" xmlns:xlink="http://www.w3.org/1999/xlink" x="0px" y="0px"
	 viewBox="0 0 168.6 39.9" enable-background="new 0 0 168.6 39.9" xml:space="preserve">
<path fill="#54B848" d="M166.8,9.8c1.1,0,1.9,0.8,1.9,1.9c0,1.1-0.8,1.9-1.9,1.9c-1.1,0-1.9-0.8-1.9-1.9
	C164.8,10.6,165.7,9.8,166.8,9.8L166.8,9.8z M166.7,10.1c-0.9,0-1.5,0.7-1.5,1.5c0,0.9,0.6,1.6,1.5,1.6c0.9,0,1.5-0.7,1.5-1.5
	C168.3,10.8,167.6,10.1,166.7,10.1C166.7,10.1,166.7,10.1,166.7,10.1z M166.4,12.7H166v-2c0.2,0,0.4-0.1,0.7-0.1
	c0.3,0,0.5,0.1,0.6,0.1c0.1,0.1,0.2,0.2,0.2,0.4c0,0.2-0.2,0.4-0.4,0.5v0c0.2,0.1,0.3,0.2,0.3,0.5c0.1,0.3,0.1,0.4,0.1,0.5h-0.4
	c-0.1-0.1-0.1-0.2-0.2-0.5c0-0.2-0.2-0.3-0.5-0.3h-0.2L166.4,12.7L166.4,12.7z M166.4,11.6h0.2c0.3,0,0.5-0.1,0.5-0.3
	c0-0.2-0.1-0.3-0.5-0.3c-0.1,0-0.2,0-0.3,0L166.4,11.6L166.4,11.6z"/>
<path fill="#54B848" stroke="#FFFFFF" stroke-miterlimit="10" d="M79.6,30.7c0,2.9-1.6,5.5-4.2,6.9c-6,3.1-14.8,3.1-20.9,0
	c-2.6-1.3-4.2-4-4.2-6.9v-6.9c0-2.9,1.6-5.5,4.2-6.9h0c6-3.1,14.8-3.1,20.9,0c2.6,1.3,4.2,4,4.2,6.9V30.7z M55.8,23.8v6.9
	c0,0.9,0.5,1.6,1.2,2c4.4,2.3,11.3,2.3,15.7,0c0.8-0.4,1.2-1.1,1.2-2v-6.9c0-0.9-0.5-1.6-1.2-2c-4.4-2.3-11.3-2.3-15.7,0
	C56.3,22.2,55.8,22.9,55.8,23.8"/>
<path fill="#54B848" stroke="#FFFFFF" stroke-miterlimit="10" d="M89.1,21.8c4.4-2.3,11.3-2.3,15.7,0c0.8,0.4,1.2,1.1,1.2,2v6.9
	c0,0.9-0.5,1.6-1.2,2c-4.4,2.3-11.3,2.3-15.7,0c-0.8-0.4-1.2-1.1-1.2-2v-6.9C87.9,22.9,88.4,22.2,89.1,21.8 M82.4,30.7
	c0,2.9,1.6,5.5,4.2,6.9c6,3.1,14.8,3.1,20.8,0c2.6-1.3,4.2-4,4.2-6.9v-6.9c0-2.9-1.6-5.5-4.2-6.9c-5.6-2.9-13.6-3.1-19.5-0.6v-6.2
	c0-0.1,0-0.2-0.1-0.2c-0.1-0.1-0.2-0.1-0.2-0.1c0,0-0.1,0-0.1,0l-4.6,2.3c-0.1,0-0.2,0.1-0.2,0.1c-0.1,0.1-0.2,0.3-0.2,0.5
	L82.4,30.7L82.4,30.7z"/>
<path fill="#54B848" stroke="#FFFFFF" stroke-miterlimit="10" d="M136.6,12.9c0,0.5-0.3,1-0.8,1.3c-1.1,0.6-2.8,0.6-3.9,0
	c-0.5-0.3-0.8-0.8-0.8-1.3v-1.3c0-0.5,0.3-1,0.8-1.3c1.1-0.6,2.8-0.6,3.9,0c0.5,0.3,0.8,0.8,0.8,1.3V12.9z"/>
<path fill="#54B848" stroke="#FFFFFF" stroke-miterlimit="10" d="M120,12.9c0,0.5-0.3,1-0.8,1.3c-1.1,0.6-2.8,0.6-4,0
	c-0.5-0.3-0.8-0.8-0.8-1.3v-1.3c0-0.5,0.3-1,0.8-1.3c1.1-0.6,2.8-0.6,4,0c0.5,0.3,0.8,0.8,0.8,1.3V12.9z"/>
<path fill="#54B848" stroke="#FFFFFF" stroke-miterlimit="10" d="M128.3,38.2c0,0.2-0.2,0.3-0.3,0.3h-4.8c-0.2,0-0.4-0.2-0.4-0.3
	V12.8c0-0.2,0.1-0.4,0.2-0.5c0.1-0.1,0.1-0.1,0.2-0.1l4.6-2.3c0,0,0.1,0,0.1,0c0.1,0,0.2,0,0.2,0.1c0.1,0.1,0.1,0.2,0.1,0.2V38.2z"
	/>
<path fill="#54B848" stroke="#FFFFFF" stroke-miterlimit="10" d="M131.1,18.9c0-0.2,0.1-0.4,0.2-0.5c0.1-0.1,0.1-0.1,0.2-0.1
	l4.6-2.3c0,0,0.1,0,0.1,0c0.1,0,0.2,0,0.2,0.1c0.1,0.1,0.1,0.1,0.1,0.2v21.8c0,0.2-0.2,0.3-0.3,0.3h-4.9c-0.2,0-0.4-0.2-0.4-0.3
	L131.1,18.9L131.1,18.9z"/>
<path fill="#54B848" stroke="#FFFFFF" stroke-miterlimit="10" d="M120,18.9c0-0.2-0.1-0.4-0.2-0.5c-0.1-0.1-0.1-0.1-0.2-0.1
	l-4.7-2.3c0,0-0.1,0-0.1,0c-0.1,0-0.2,0-0.2,0.1c-0.1,0.1-0.1,0.1-0.1,0.2v21.8c0,0.2,0.2,0.3,0.3,0.3h4.9c0.2,0,0.3-0.2,0.3-0.3
	L120,18.9L120,18.9z"/>
<path fill="#54B848" stroke="#FFFFFF" stroke-miterlimit="10" d="M5.6,23.8c0-0.9,0.5-1.6,1.2-2c3.9-2,9.8-2.2,14.2-0.7v17
	c0,0.2,0.2,0.3,0.3,0.3h4.9c0.2,0,0.4-0.2,0.4-0.3v-17c4.4-1.6,10.3-1.4,14.2,0.7c0.8,0.4,1.2,1.1,1.2,2v14.4c0,0.2,0.2,0.3,0.3,0.3
	h4.9c0.2,0,0.3-0.2,0.3-0.3V23.8c0-2.9-1.6-5.5-4.2-6.9c-5.6-2.9-13.6-3.1-19.5-0.6C17.8,13.8,9.9,14,4.3,16.9
	c-2.6,1.3-4.2,4-4.2,6.9v14.4c0,0.2,0.2,0.3,0.3,0.3h4.9c0.2,0,0.4-0.2,0.4-0.3L5.6,23.8L5.6,23.8z"/>
<path fill="#54B848" stroke="#FFFFFF" stroke-miterlimit="10" d="M139.4,23.8c0-2.9,1.6-5.5,4.2-6.9c6-3.1,14.8-3.1,20.9,0
	c2,1,3.4,2.8,3.9,4.8h-6.6c-4.4-2.2-11.3-2.2-15.6,0c-0.8,0.4-1.2,1.1-1.2,2v0.7h23.4c0.2,0,0.3,0.1,0.3,0.3v5.8
	c0,2.9-1.6,5.5-4.2,6.9c-6,3.1-14.8,3.1-20.9,0c-2-1-3.4-2.8-3.9-4.8h6.6c4.4,2.2,11.3,2.2,15.7,0c0.8-0.4,1.2-1.1,1.2-2V30h-23.4
	c-0.2,0-0.3-0.2-0.3-0.3V23.8z"/>
<path fill="#BA2B31" d="M48.2,9.4c0,0.1-0.1,0.3-0.2,0.3c-0.3,0.1-0.7,0.1-1,0c-0.1-0.1-0.2-0.2-0.2-0.3V9.1c0-0.1,0.1-0.3,0.2-0.3
	c0.3-0.1,0.7-0.1,1,0c0.1,0.1,0.2,0.2,0.2,0.3V9.4z"/>
<path fill="#BA2B31" d="M42.8,9.4c0,0.1-0.1,0.3-0.2,0.3c-0.3,0.1-0.7,0.1-1,0c-0.1-0.1-0.2-0.2-0.2-0.3V9.1c0-0.1,0.1-0.3,0.2-0.3
	c0.3-0.1,0.7-0.1,1,0c0.1,0.1,0.2,0.2,0.2,0.3V9.4z"/>
<path fill="#BA2B31" d="M44.8,9.4c0,0.1-0.1,0.3-0.2,0.3c-0.3,0.1-0.7,0.1-1,0c-0.1-0.1-0.2-0.2-0.2-0.3V9.1c0-0.1,0.1-0.3,0.2-0.3
	c0.3-0.1,0.7-0.1,1,0c0.1,0.1,0.2,0.2,0.2,0.3V9.4z"/>
<path fill="#BA2B31" d="M34,9.4c0,0.1-0.1,0.3-0.2,0.3c-0.3,0.1-0.7,0.1-1,0c-0.1-0.1-0.2-0.2-0.2-0.3V9.1c0-0.1,0.1-0.3,0.2-0.3
	c0.3-0.1,0.7-0.1,1,0C33.9,8.8,34,8.9,34,9.1V9.4z"/>
<path fill="#BA2B31" d="M36,9.4c0,0.1-0.1,0.3-0.2,0.3c-0.3,0.1-0.7,0.1-1,0c-0.1-0.1-0.2-0.2-0.2-0.3V9.1c0-0.1,0.1-0.3,0.2-0.3
	c0.3-0.1,0.7-0.1,1,0C35.9,8.8,36,8.9,36,9.1V9.4z"/>
<path fill="#BA2B31" d="M56.6,7.3c0.7,0.1,1.5,0.1,2.1-0.3c0.1-0.1,0.2-0.1,0.3-0.2c1.5,0.7,3.6,0.7,5,0c0.6-0.3,1-1,1-1.7V3.4
	c0-0.7-0.4-1.3-1-1.7c-1.4-0.7-3.3-0.7-4.7-0.1V1.3c0,0,0,0,0-0.1c0,0,0,0-0.1,0c0,0,0,0,0,0L58,1.8c0,0,0,0-0.1,0c0,0,0,0.1,0,0.1
	v3.8c0,0.1,0,0.1-0.1,0.2C57.5,6,57,6,56.7,5.9c-0.1,0-0.1-0.1-0.1-0.2V3.4c0-0.7-0.4-1.3-1-1.7c-1.5-0.8-3.6-0.8-5,0
	c-0.6,0.3-1,1-1,1.7v1.7c0,0.7,0.4,1.3,1,1.7c1.4,0.7,3.3,0.7,4.7,0.1v0.7c0,0.2-0.1,0.4-0.3,0.5c-1.1,0.5-2.7,0.5-3.8,0h-1.6
	c0.1,0.5,0.5,0.9,1,1.2c1.5,0.8,3.6,0.8,5,0c0.6-0.3,1-1,1-1.7L56.6,7.3L56.6,7.3z M55.3,5.1c0,0.2-0.1,0.4-0.3,0.5
	c-1.1,0.6-2.7,0.6-3.8,0c-0.2-0.1-0.3-0.3-0.3-0.5V3.4c0-0.2,0.1-0.4,0.3-0.5c1.1-0.6,2.7-0.6,3.8,0c0.2,0.1,0.3,0.3,0.3,0.5V5.1z
	 M63.7,5.1c0,0.2-0.1,0.4-0.3,0.5c-1.1,0.6-2.7,0.6-3.8,0c-0.2-0.1-0.3-0.3-0.3-0.5V3.4c0-0.2,0.1-0.4,0.3-0.5
	c1.1-0.6,2.7-0.6,3.8,0c0.2,0.1,0.3,0.3,0.3,0.5V5.1z"/>
<path fill="#BA2B31" d="M48.1,1.5h-1.2c0,0-0.1,0-0.1,0.1v3.8c0,0.1-0.1,0.3-0.2,0.3c-0.7,0.4-1.9,0.4-2.6,0
	c-0.1-0.1-0.2-0.2-0.2-0.3V1.6c0,0,0-0.1-0.1-0.1h-1.2c0,0-0.1,0-0.1,0.1v3.8c0,0.1-0.1,0.3-0.2,0.3c-0.7,0.4-1.9,0.4-2.6,0
	c-0.1-0.1-0.2-0.2-0.2-0.3V0.1c0,0,0,0,0-0.1c0,0,0,0-0.1,0l0,0l-1.1,0.6c0,0,0,0-0.1,0c0,0,0,0.1,0,0.1l0,4.7
	c0,0.1-0.1,0.3-0.2,0.3c-0.7,0.4-1.9,0.4-2.6,0C35.1,5.6,35,5.5,35,5.4V1.6c0,0,0-0.1-0.1-0.1h-1.2c0,0-0.1,0-0.1,0.1v3.8
	c0,0.1-0.1,0.3-0.2,0.3c-0.7,0.4-1.9,0.4-2.6,0c-0.1-0.1-0.2-0.2-0.2-0.3V1.6c0,0,0-0.1-0.1-0.1h-1.2c0,0-0.1,0-0.1,0.1v3.8
	c0,0.1-0.1,0.3-0.2,0.3c-0.7,0.4-1.9,0.4-2.6,0c-0.1-0.1-0.2-0.2-0.2-0.3V1.6c0,0,0-0.1-0.1-0.1h-1.2c0,0-0.1,0-0.1,0.1v3.8
	c0,0.1-0.1,0.3-0.2,0.3c-0.7,0.4-1.9,0.4-2.6,0c-0.1-0.1-0.2-0.2-0.2-0.3V1.6c0,0,0-0.1-0.1-0.1h-1.2c0,0-0.1,0-0.1,0.1l0,6
	c0,0.2-0.1,0.4-0.3,0.5c-1.1,0.5-2.7,0.5-3.8,0h-1.6c0.1,0.5,0.5,0.9,1,1.2c1.5,0.8,3.6,0.8,5,0c0.6-0.3,1-1,1-1.7V7.1
	c1.1,0.4,2.6,0.3,3.6-0.2c0.1,0,0.1-0.1,0.2-0.1c0,0,0.1,0.1,0.2,0.1c1.2,0.6,2.9,0.6,4.1,0c0.1,0,0.1-0.1,0.2-0.1
	c0,0,0.1,0.1,0.2,0.1c1.2,0.6,2.9,0.6,4.1,0c0.1,0,0.1-0.1,0.2-0.1c0.1,0,0.1,0.1,0.2,0.1c1.2,0.6,2.9,0.6,4.1,0
	c0.1,0,0.1-0.1,0.2-0.1c0.1,0,0.1,0.1,0.2,0.1c1.2,0.6,2.9,0.6,4.1,0c0.1,0,0.1-0.1,0.2-0.1c0.1,0,0.1,0.1,0.2,0.1
	c1.2,0.6,2.9,0.6,4.1,0c0.5-0.3,0.8-0.8,0.8-1.3L48.1,1.5C48.2,1.5,48.1,1.5,48.1,1.5"/>
</svg>
