<?xml version="1.0" encoding="utf-8"?>
<!-- Generator: Adobe Illustrator 17.1.0, SVG Export Plug-In . SVG Version: 6.00 Build 0)  -->
<!DOCTYPE svg PUBLIC "-//W3C//DTD SVG 1.1//EN" "http://www.w3.org/Graphics/SVG/1.1/DTD/svg11.dtd">
<svg version="1.1" id="Layer_1" xmlns="http://www.w3.org/2000/svg" xmlns:xlink="http://www.w3.org/1999/xlink" x="0px" y="0px"
	 viewBox="0 0 4252 1417.3" enable-background="new 0 0 4252 1417.3" xml:space="preserve">
<path fill="#54B848" stroke="#FFFFFF" stroke-miterlimit="10" d="M2007.5,979.8c0,73.1-40.4,138.7-105.9,174
	c-151.3,78.2-373.2,78.2-527.1,0c-65.6-32.8-105.9-100.9-105.9-174v-174c0-73.1,40.4-138.7,105.9-174l0,0
	c151.3-78.2,373.2-78.2,527.1,0c65.6,32.8,105.9,100.9,105.9,174V979.8z M1407.2,805.8v174c0,22.7,12.6,40.4,30.3,50.4
	c111,58,285,58,395.9,0c20.2-10.1,30.3-27.7,30.3-50.4v-174c0-22.7-12.6-40.4-30.3-50.4c-111-58-285-58-395.9,0
	C1419.8,765.4,1407.2,783.1,1407.2,805.8"/>
<path fill="#54B848" stroke="#FFFFFF" stroke-miterlimit="10" d="M2247,755.3c111-58,285-58,395.9,0c20.2,10.1,30.3,27.7,30.3,50.4
	v174c0,22.7-12.6,40.4-30.3,50.4c-111,58-285,58-395.9,0c-20.2-10.1-30.3-27.7-30.3-50.4v-174C2216.8,783.1,2229.4,765.4,2247,755.3
	 M2078.1,979.8c0,73.1,40.4,138.7,105.9,174c151.3,78.2,373.2,78.2,524.6,0c65.6-32.8,105.9-100.9,105.9-174v-174
	c0-73.1-40.4-138.7-105.9-174c-141.2-73.1-343-78.2-491.8-15.1V460.3c0-2.5,0-5-2.5-5c-2.5-2.5-5-2.5-5-2.5h-2.5l-116,58
	c-2.5,0-5,2.5-5,2.5c-2.5,2.5-5,7.6-5,12.6L2078.1,979.8L2078.1,979.8z"/>
<path fill="#54B848" stroke="#FFFFFF" stroke-miterlimit="10" d="M3445,530.9c0,12.6-7.6,25.2-20.2,32.8
	c-27.7,15.1-70.6,15.1-98.4,0c-12.6-7.6-20.2-20.2-20.2-32.8v-32.8c0-12.6,7.6-25.2,20.2-32.8c27.7-15.1,70.6-15.1,98.4,0
	c12.6,7.6,20.2,20.2,20.2,32.8V530.9z"/>
<path fill="#54B848" stroke="#FFFFFF" stroke-miterlimit="10" d="M3026.3,530.9c0,12.6-7.6,25.2-20.2,32.8
	c-27.7,15.1-70.6,15.1-100.9,0c-12.6-7.6-20.2-20.2-20.2-32.8v-32.8c0-12.6,7.6-25.2,20.2-32.8c27.7-15.1,70.6-15.1,100.9,0
	c12.6,7.6,20.2,20.2,20.2,32.8V530.9z"/>
<path fill="#54B848" stroke="#FFFFFF" stroke-miterlimit="10" d="M3235.6,1168.9c0,5-5,7.6-7.6,7.6H3107c-5,0-10.1-5-10.1-7.6V528.3
	c0-5,2.5-10.1,5-12.6c2.5-2.5,2.5-2.5,5-2.5l116-58h2.5c2.5,0,5,0,5,2.5c2.5,2.5,2.5,5,2.5,5v706.1H3235.6z"/>
<path fill="#54B848" stroke="#FFFFFF" stroke-miterlimit="10" d="M3306.2,682.2c0-5,2.5-10.1,5-12.6c2.5-2.5,2.5-2.5,5-2.5l116-58
	h2.5c2.5,0,5,0,5,2.5c2.5,2.5,2.5,2.5,2.5,5v549.8c0,5-5,7.6-7.6,7.6h-123.6c-5,0-10.1-5-10.1-7.6L3306.2,682.2L3306.2,682.2z"/>
<path fill="#54B848" stroke="#FFFFFF" stroke-miterlimit="10" d="M3026.3,682.2c0-5-2.5-10.1-5-12.6c-2.5-2.5-2.5-2.5-5-2.5
	l-118.5-58h-2.5c-2.5,0-5,0-5,2.5c-2.5,2.5-2.5,2.5-2.5,5v549.8c0,5,5,7.6,7.6,7.6h123.6c5,0,7.6-5,7.6-7.6L3026.3,682.2
	L3026.3,682.2z"/>
<path fill="#54B848" stroke="#FFFFFF" stroke-miterlimit="10" d="M141.2,805.8c0-22.7,12.6-40.4,30.3-50.4
	c98.4-50.4,247.1-55.5,358.1-17.7v428.7c0,5,5,7.6,7.6,7.6h123.6c5,0,10.1-5,10.1-7.6V737.7c111-40.4,259.8-35.3,358.1,17.7
	c20.2,10.1,30.3,27.7,30.3,50.4v363.2c0,5,5,7.6,7.6,7.6h123.6c5,0,7.6-5,7.6-7.6V805.8c0-73.1-40.4-138.7-105.9-174
	c-141.2-73.1-343-78.2-491.8-15.1c-151.3-63-350.5-58-491.8,15.1C42.9,664.5,2.5,732.6,2.5,805.8v363.2c0,5,5,7.6,7.6,7.6h123.6
	c5,0,10.1-5,10.1-7.6L141.2,805.8L141.2,805.8z"/>
<path fill="#54B848" stroke="#FFFFFF" stroke-miterlimit="10" d="M3515.6,805.8c0-73.1,40.4-138.7,105.9-174
	c151.3-78.2,373.2-78.2,527.1,0c50.4,25.2,85.7,70.6,98.4,121.1h-166.4c-111-55.5-285-55.5-393.4,0c-20.2,10.1-30.3,27.7-30.3,50.4
	v17.7h590.1c5,0,7.6,2.5,7.6,7.6v146.3c0,73.1-40.4,138.7-105.9,174c-151.3,78.2-373.2,78.2-527.1,0
	c-50.4-25.2-85.7-70.6-98.4-121.1h166.4c111,55.5,285,55.5,395.9,0c20.2-10.1,30.3-27.7,30.3-50.4v-15.1h-590.1c-5,0-7.6-5-7.6-7.6
	V805.8H3515.6z"/>
</svg>
